<svg id="Capa_1" data-name="Capa 1" xmlns="http://www.w3.org/2000/svg" viewBox="0 0 27 27"><defs><style>.cls-1{fill:#542c70;}</style></defs><path class="cls-1" d="M25,.11h-22A2.16,2.16,0,0,0,.78,2.27V25a2.17,2.17,0,0,0,2.16,2.17H14.82v-.46c0-3.18,0-6.37,0-9.55,0-.12,0-.24,0-.38l-.41,0c-.85,0-1.7,0-2.54,0-.4,0-.49-.13-.49-.51,0-1.07,0-2.15,0-3.22,0-.14,0-.28,0-.46,1,0,2,0,3,0,.38,0,.46-.12.46-.48A29.71,29.71,0,0,1,15,8.22a4.38,4.38,0,0,1,3.39-3.84,13.37,13.37,0,0,1,4.72-.06.87.87,0,0,1,.06.15c0,1.11,0,2.21,0,3.31,0,.26-.15.29-.36.29-.76,0-1.51,0-2.27,0a1.24,1.24,0,0,0-1.36,1.05c-.11,1.12-.11,2.26-.17,3.44h4c-.17,1.35-.32,2.65-.5,3.94,0,.09-.22.22-.34.22-.61,0-1.22,0-1.83,0H19.08V27.17H25A2.17,2.17,0,0,0,27.11,25V2.27A2.16,2.16,0,0,0,25,.11Z"/></svg>