<svg id="Capa_1" data-name="Capa 1" xmlns="http://www.w3.org/2000/svg" viewBox="0 0 27 27"><defs><style>.cls-1{fill:#542c70;}</style></defs><path class="cls-1" d="M20.51,13.52a7,7,0,1,1-7-7A7,7,0,0,1,20.51,13.52Zm-2.48,0A4.53,4.53,0,1,0,13.47,18,4.56,4.56,0,0,0,18,13.52ZM21,4.82A1.65,1.65,0,1,0,22.6,6.45,1.62,1.62,0,0,0,21,4.82ZM19.92,0H7.08A7.13,7.13,0,0,0,0,7.08V19.92A7.13,7.13,0,0,0,7.08,27H19.92A7.13,7.13,0,0,0,27,19.92V7.08A7.13,7.13,0,0,0,19.92,0Zm4.74,19.61a4.81,4.81,0,0,1-4.8,4.8H7.14a4.81,4.81,0,0,1-4.8-4.8V7.42a4.81,4.81,0,0,1,4.8-4.8H19.86a4.81,4.81,0,0,1,4.8,4.8Z"/></svg>