<?xml version="1.0" encoding="utf-8"?>
<!-- Generator: Adobe Illustrator 25.4.1, SVG Export Plug-In . SVG Version: 6.00 Build 0)  -->
<svg version="1.1" id="Capa_1" xmlns="http://www.w3.org/2000/svg" xmlns:xlink="http://www.w3.org/1999/xlink" x="0px" y="0px"
	 viewBox="0 0 258 98" style="enable-background:new 0 0 258 98;" xml:space="preserve">
<style type="text/css">
	.st0{fill:#EDEDED;}
</style>
<g id="XMLID_00000182526428132922114790000009565738574167968669_">
	<path id="XMLID_00000071545992193473688670000006476183371200827307_" class="st0" d="M140.18,3.28l-4.8-2.4
		c-1.33-0.5-2.28-0.35-3.02-0.06l-9.72,3.3c0,0-3.07,0.98-3.07,4.73v69.98c0,3.14-2.27,4.24-2.27,4.24
		c5.21,10.03,11.92,14.47,11.92,14.47c8.18-6.51,11.77-14.36,11.77-14.36s-2.38-1.24-2.38-4.19V12.13c0-1.2,0.89-2.31,2.32-2.31
		c1.73,0,2.4,1.71,2.4,1.71C143.6,9.08,143,4.72,140.18,3.28z"/>
	<path id="XMLID_00000039816225707831995470000008016975373294469805_" class="st0" d="M183.56,12.22L183.56,12.22l-19.39,0
		c0,0-1.34,0-2.05,1.17c-4.32,7.13-10.9,12.71-18.71,15.85v13.73v6.19c11.43-2.94,21.49-9.29,29.03-17.9h55.37
		c1.86,0,3.1-1.1,3.1-1.1l26.64-17.95H183.56z"/>
	<path id="XMLID_00000019659423942153305080000001549791730323824546_" class="st0" d="M83.94,36.07h-7.6H60.6H36.02
		c0,0,13.68,9.37,17.53,11.82c5.64,3.59,13.84,7.21,23.59,7.22c10.59,8.92,23.49,15.17,37.69,17.73V62.25v-8.34
		C102.81,51.06,92.15,44.74,83.94,36.07z"/>
	<path id="XMLID_00000023248046055162396860000003471984160619179422_" class="st0" d="M96.12,13.39c-0.72-1.17-2.05-1.17-2.05-1.17
		h-19.4c0,0,0,0,0,0H0.69l26.64,17.95c0,0,1.23,1.1,3.09,1.1h55.37c7.55,8.61,17.61,14.96,29.04,17.9v-6.19V29.24
		C107.01,26.1,100.43,20.52,96.12,13.39z"/>
	<path id="XMLID_00000157269002650251655150000015094176524410036112_" class="st0" d="M181.9,36.07h-7.6
		c-8.21,8.68-18.88,15-30.89,17.85v8.34v10.59c14.19-2.56,27.1-8.81,37.68-17.73c9.75-0.01,17.96-3.63,23.59-7.22
		c3.85-2.45,17.53-11.82,17.53-11.82h-24.58H181.9z"/>
</g>
</svg>
