<svg id="Capa_1" data-name="Capa 1" xmlns="http://www.w3.org/2000/svg" viewBox="0 0 167 109.79"><defs><style>.cls-1{fill:#542c70;}</style></defs><path class="cls-1" d="M90.69,1.85,87.57.22a2.5,2.5,0,0,0-2,0L79.29,2.41a3.25,3.25,0,0,0-2,3.2V53a3.14,3.14,0,0,1-1.48,2.87,27.3,27.3,0,0,0,7.75,9.79,29.59,29.59,0,0,0,7.65-9.72,3.29,3.29,0,0,1-1.54-2.84V7.84a1.5,1.5,0,0,1,1.5-1.56,1.82,1.82,0,0,1,1.57,1.16C92.91,5.77,92.52,2.82,90.69,1.85Z"/><path class="cls-1" d="M118.88,7.9h-12.6a1.63,1.63,0,0,0-1.33.8A25.45,25.45,0,0,1,92.79,19.41V32.9a37.32,37.32,0,0,0,18.87-12.12h36a3.2,3.2,0,0,0,2-.74L167,7.9Z"/><path class="cls-1" d="M49.2,24H23s8.89,6.34,11.39,8a28,28,0,0,0,15.34,4.89,51.51,51.51,0,0,0,24.49,12V36.11A40.1,40.1,0,0,1,54.14,24Z"/><path class="cls-1" d="M62.05,8.69a1.64,1.64,0,0,0-1.33-.8H0L17.34,20a3.19,3.19,0,0,0,2,.74h36A37.32,37.32,0,0,0,74.21,32.9V19.41A25.45,25.45,0,0,1,62.05,8.69Z"/><path class="cls-1" d="M117.8,24h-4.93A40.17,40.17,0,0,1,92.79,36.11V48.92a51.51,51.51,0,0,0,24.49-12A28,28,0,0,0,132.61,32c2.51-1.66,11.4-8,11.4-8H117.8Z"/><path class="cls-1" d="M44.73,99.07A6.32,6.32,0,0,0,46,95.15a7,7,0,0,0-.92-3.57,6.3,6.3,0,0,0-2.75-2.49,10,10,0,0,0-4.44-.9H28.33v21.6h6.05v-8H35l4.39,8h6.67L41.1,101.4A6.71,6.71,0,0,0,44.73,99.07ZM37.36,97.8h-3V93.26h3a2.6,2.6,0,0,1,1.89.61,2.2,2.2,0,0,1,.63,1.67C39.88,97.05,39,97.8,37.36,97.8Z"/><polygon class="cls-1" points="49.38 109.79 63.38 109.79 63.38 105 55.43 105 55.43 101.09 62.46 101.09 62.46 96.55 55.43 96.55 55.43 92.98 63.38 92.98 63.38 88.19 49.38 88.19 49.38 109.79"/><polygon class="cls-1" points="79.89 102.25 74.55 88.28 67.15 88.28 67.15 109.79 73.2 109.79 73.2 97.59 77.22 109.79 82.41 109.79 86.43 97.59 86.43 109.79 92.42 109.79 92.42 88.28 85.08 88.28 79.89 102.25"/><path class="cls-1" d="M112.84,89.28a11.73,11.73,0,0,0-11.19,0,10.38,10.38,0,0,0-4,4,11.72,11.72,0,0,0,0,11.4,10.38,10.38,0,0,0,4,4,11.67,11.67,0,0,0,11.16,0,10.42,10.42,0,0,0,4-4,11.86,11.86,0,0,0,0-11.4A10.4,10.4,0,0,0,112.84,89.28Zm-2,13.64a5.08,5.08,0,0,1-7.21,0,6.77,6.77,0,0,1,0-8,5.15,5.15,0,0,1,7.23,0,5.87,5.87,0,0,1,1.3,4A5.79,5.79,0,0,1,110.83,102.92Z"/><polygon class="cls-1" points="136.03 100.42 128.05 88.22 122 88.22 122 109.79 128.05 109.79 128.05 97.74 136.03 109.79 142.08 109.79 142.08 88.22 136.03 88.22 136.03 100.42"/><path class="cls-1" d="M161.07,88.19h-16V93h5.8v16.81h6V93h.13v0h.17l.17,0a10.61,10.61,0,0,0,5.36-1.79c.93-.62,4.23-3,4.23-3Z"/><path class="cls-1" d="M10.07,88.19H0s3.3,2.36,4.23,3A10.61,10.61,0,0,0,9.59,93l.17,0h.17v0h.13v16.81h6.05v-8.45h6.51V96.82H16.12V93h8.72V88.19H10.07Z"/></svg>